<svg width="515" height="75" viewBox="0 0 515 75" fill="none" xmlns="http://www.w3.org/2000/svg">
<g filter="url(#filter0_d_6_54)">
<path d="M54.704 45.528C54.704 57.176 47.472 63 33.008 63H5.84V3.384H32.624C39.792 3.384 45.072 4.664 48.464 7.224C51.92 9.784 53.648 13.72 53.648 19.032C53.648 24.344 51.408 28.44 46.928 31.32V31.704C52.112 34.072 54.704 38.68 54.704 45.528ZM29.072 51.096C30.8 51.096 31.952 50.744 32.528 50.04C33.104 49.272 33.392 47.704 33.392 45.336C33.392 42.968 33.072 41.304 32.432 40.344C31.856 39.32 30.736 38.808 29.072 38.808H26.288V51.096H29.072ZM29.168 28.248C30.32 28.248 31.152 27.864 31.664 27.096C32.24 26.328 32.528 25.016 32.528 23.16C32.528 21.24 32.24 19.864 31.664 19.032C31.152 18.2 30.288 17.784 29.072 17.784H26.288V28.248H29.168ZM80.8618 31.32C79.5178 31.32 78.5898 31.736 78.0778 32.568C77.5658 33.4 77.3098 34.68 77.3098 36.408H84.2218V34.872C84.2218 32.504 83.1018 31.32 80.8618 31.32ZM57.5338 39.864C57.5338 32.248 59.5178 26.36 63.4858 22.2C67.5178 17.976 73.4058 15.864 81.1498 15.864C88.9578 15.864 94.4618 17.464 97.6618 20.664C100.926 23.864 102.558 28.44 102.558 34.392C102.558 36.76 102.302 40.344 101.79 45.144H77.6938C77.9498 48.6 80.0618 50.328 84.0298 50.328C85.8858 50.328 90.7498 49.656 98.6218 48.312L100.254 61.272C93.4698 63.064 87.1338 63.96 81.2458 63.96C73.5658 63.96 67.6778 61.848 63.5818 57.624C59.5498 53.4 57.5338 47.48 57.5338 39.864ZM164.38 15.864C173.212 15.864 177.628 20.216 177.628 28.92V63H157.372V33.24C157.372 32.216 156.988 31.704 156.22 31.704C155.196 31.704 153.916 32.024 152.38 32.664V63H132.124V33.24C132.124 32.216 131.708 31.704 130.876 31.704C129.724 31.704 128.444 32.024 127.036 32.664V63H107.068V17.016H125.212L125.788 19.992C130.076 17.24 134.716 15.864 139.708 15.864C144.7 15.864 148.284 17.4 150.46 20.472C154.812 17.4 159.452 15.864 164.38 15.864ZM216.116 45.816H183.572V30.264H216.116V45.816ZM267.219 17.016L256.179 63H229.203L218.067 17.016H238.899L242.739 41.592H243.411L247.635 17.016H267.219ZM290.364 63H270.396V17.976H290.364V63ZM270.012 8.27999C270.012 2.84 273.436 0.119997 280.284 0.119997C287.132 0.119997 290.556 2.84 290.556 8.27999C290.556 11.096 289.692 13.112 287.964 14.328C286.3 15.544 283.74 16.152 280.284 16.152C276.828 16.152 274.236 15.576 272.508 14.424C270.844 13.208 270.012 11.16 270.012 8.27999ZM328.502 15.864C337.462 15.864 341.942 20.216 341.942 28.92V63H321.686V33.24C321.686 32.216 321.142 31.704 320.054 31.704C319.03 31.704 317.878 32.024 316.598 32.664V63H296.63V17.016H314.774L315.35 19.992C319.382 17.24 323.766 15.864 328.502 15.864ZM385.836 63.96C380.844 63.96 377.42 62.712 375.564 60.216H375.18C372.236 62.712 368.748 63.96 364.716 63.96C358.06 63.96 353.324 61.848 350.508 57.624C347.692 53.4 346.284 47.416 346.284 39.672C346.284 31.928 347.82 26.04 350.892 22.008C354.028 17.912 358.508 15.864 364.332 15.864C367.66 15.864 370.348 16.376 372.396 17.4V1.464H391.692V48.6C391.692 49.432 391.98 50.008 392.556 50.328C393.196 50.648 394.284 50.808 395.82 50.808L394.092 63.576C390.764 63.832 388.012 63.96 385.836 63.96ZM369.324 30.456C368.044 30.456 367.212 31.192 366.828 32.664C366.508 34.136 366.348 36.696 366.348 40.344C366.348 43.992 366.508 46.552 366.828 48.024C367.148 49.432 367.948 50.136 369.228 50.136C370.572 50.136 371.628 50.008 372.396 49.752V31.128C371.308 30.68 370.284 30.456 369.324 30.456ZM398.409 39.864C398.409 31.416 400.265 25.304 403.977 21.528C407.753 17.752 413.609 15.864 421.545 15.864C429.545 15.864 435.369 17.72 439.017 21.432C442.665 25.144 444.489 31.256 444.489 39.768C444.489 48.216 442.697 54.36 439.113 58.2C435.593 62.04 429.769 63.96 421.641 63.96C413.577 63.96 407.689 62.04 403.977 58.2C400.265 54.36 398.409 48.248 398.409 39.864ZM424.041 31.704C423.721 30.552 422.889 29.976 421.545 29.976C420.201 29.976 419.337 30.552 418.953 31.704C418.633 32.792 418.473 35.16 418.473 38.808V41.112C418.473 45.208 418.633 47.864 418.953 49.08C419.337 50.232 420.201 50.808 421.545 50.808C422.889 50.808 423.721 50.232 424.041 49.08C424.425 47.864 424.617 45.368 424.617 41.592V38.904C424.617 35.192 424.425 32.792 424.041 31.704ZM484.018 48.696C484.018 58.872 478.098 63.96 466.258 63.96C460.114 63.96 454.162 63.288 448.402 61.944L449.65 47.832C457.65 49.752 462.962 50.712 465.586 50.712C466.482 50.712 466.93 50.424 466.93 49.848C466.93 49.272 466.418 48.792 465.394 48.408C458.802 46.168 454.002 43.8 450.994 41.304C447.986 38.808 446.482 35.224 446.482 30.552C446.482 25.88 448.114 22.264 451.378 19.704C454.706 17.144 459.154 15.864 464.722 15.864C470.354 15.864 476.53 16.504 483.25 17.784L481.234 32.28C472.786 30.616 467.666 29.784 465.874 29.784C465.042 29.784 464.626 30.104 464.626 30.744C464.626 31.256 465.17 31.704 466.258 32.088C471.57 33.816 475.41 35.544 477.778 37.272C480.146 38.936 481.778 40.664 482.674 42.456C483.57 44.248 484.018 46.328 484.018 48.696ZM493.649 46.104L492.497 3.384H511.697L510.257 46.104H493.649ZM502.193 63.96C498.737 63.96 496.305 63.352 494.897 62.136C493.489 60.856 492.785 58.904 492.785 56.28C492.785 53.656 493.457 51.736 494.801 50.52C496.209 49.24 498.673 48.6 502.193 48.6C505.713 48.6 508.145 49.24 509.489 50.52C510.833 51.736 511.505 53.656 511.505 56.28C511.505 58.904 510.801 60.856 509.393 62.136C508.049 63.352 505.649 63.96 502.193 63.96Z" fill="black"/>
</g>
<defs>
<filter id="filter0_d_6_54" x="0.839996" y="0.119997" width="513.857" height="74.84" filterUnits="userSpaceOnUse" color-interpolation-filters="sRGB">
<feFlood flood-opacity="0" result="BackgroundImageFix"/>
<feColorMatrix in="SourceAlpha" type="matrix" values="0 0 0 0 0 0 0 0 0 0 0 0 0 0 0 0 0 0 127 0" result="hardAlpha"/>
<feOffset dx="-1" dy="7"/>
<feGaussianBlur stdDeviation="2"/>
<feComposite in2="hardAlpha" operator="out"/>
<feColorMatrix type="matrix" values="0 0 0 0 0.316667 0 0 0 0 1 0 0 0 0 0 0 0 0 0.76 0"/>
<feBlend mode="normal" in2="BackgroundImageFix" result="effect1_dropShadow_6_54"/>
<feBlend mode="normal" in="SourceGraphic" in2="effect1_dropShadow_6_54" result="shape"/>
</filter>
</defs>
</svg>
